<?xml version="1.0"?>
<svg width="640" height="480" xmlns="http://www.w3.org/2000/svg" xmlns:svg="http://www.w3.org/2000/svg" xmlns:xlink="http://www.w3.org/1999/xlink">
 <!-- Created with SVG-edit - https://github.com/SVG-Edit/svgedit-->
 <defs>
  <symbol height="800px" id="svg_8" transform="matrix(1, 0, 0, 1, 0, 0)rotate(45)" version="1.1" viewBox="0 0 512 512" width="800px" xml:space="preserve" xmlns="http://www.w3.org/2000/svg" xmlns:xlink="http://www.w3.org/1999/xlink">
   <g id="svg_7" stroke-width="0"/>
   <g id="svg_6" stroke="#0b0a0a" stroke-linecap="round" stroke-linejoin="round" stroke-width="3.07">
    <g>
     <g>
      <g>
       <path d="m510.87,343.9l-72.65,-202.22c-2.73,-7.6 -9.94,-12.68 -18.02,-12.68l-57.86,0l0,-64.42c0,-10.57 -8.58,-19.15 -19.16,-19.15c-10.57,0 -19.15,8.58 -19.15,19.15l0,64.42l-136.06,0l0,-64.42c0,-10.57 -8.58,-19.15 -19.15,-19.15c-10.58,0 -19.15,8.58 -19.15,19.15l0,64.42l-57.86,0c-8.09,0 -15.3,5.08 -18.03,12.68l-72.65,202.22c-0.72,2.02 -1.13,4.23 -1.13,6.48l0,122.17c0,10.58 8.57,19.15 19.15,19.15l473.7,0c10.58,0 19.15,-8.57 19.15,-19.15l0,-122.17c0,-2.2 -0.39,-4.43 -1.13,-6.48zm-405.59,-176.59l44.39,0l0,39.67c0,10.58 8.57,19.15 19.15,19.15c10.57,0 19.15,-8.57 19.15,-19.15l0,-39.67l136.06,0l0,39.67c0,10.58 8.57,19.15 19.15,19.15c10.58,0 19.15,-8.57 19.15,-19.15l0,-39.67l44.39,0l58.9,163.92c-16.67,0 -406.49,0 -419.24,0l58.9,-163.92zm197.8,202.22c-19.56,38.56 -74.6,38.56 -94.17,0l94.17,0zm170.62,83.87l-435.4,0l0,-83.87l129.8,0c10.54,38.88 46.18,67.27 87.9,67.27s77.36,-28.38 87.89,-67.27l129.81,0l0,83.87z"/>
       <path d="m256,112.8c10.58,0 19.15,-8.58 19.15,-19.16l0,-54.19c0,-10.58 -8.57,-19.15 -19.15,-19.15c-10.58,0 -19.15,8.57 -19.15,19.15l0,54.19c0,10.58 8.57,19.16 19.15,19.16z"/>
      </g>
     </g>
    </g>
   </g>
   <g id="svg_5">
    <g>
     <g>
      <g>
       <path d="m510.87,343.9l-72.65,-202.22c-2.73,-7.6 -9.94,-12.68 -18.02,-12.68l-57.86,0l0,-64.42c0,-10.57 -8.58,-19.15 -19.16,-19.15c-10.57,0 -19.15,8.58 -19.15,19.15l0,64.42l-136.06,0l0,-64.42c0,-10.57 -8.58,-19.15 -19.15,-19.15c-10.58,0 -19.15,8.58 -19.15,19.15l0,64.42l-57.86,0c-8.09,0 -15.3,5.08 -18.03,12.68l-72.65,202.22c-0.72,2.02 -1.13,4.23 -1.13,6.48l0,122.17c0,10.58 8.57,19.15 19.15,19.15l473.7,0c10.58,0 19.15,-8.57 19.15,-19.15l0,-122.17c0,-2.2 -0.39,-4.43 -1.13,-6.48zm-405.59,-176.59l44.39,0l0,39.67c0,10.58 8.57,19.15 19.15,19.15c10.57,0 19.15,-8.57 19.15,-19.15l0,-39.67l136.06,0l0,39.67c0,10.58 8.57,19.15 19.15,19.15c10.58,0 19.15,-8.57 19.15,-19.15l0,-39.67l44.39,0l58.9,163.92c-16.67,0 -406.49,0 -419.24,0l58.9,-163.92zm197.8,202.22c-19.56,38.56 -74.6,38.56 -94.17,0l94.17,0zm170.62,83.87l-435.4,0l0,-83.87l129.8,0c10.54,38.88 46.18,67.27 87.9,67.27s77.36,-28.38 87.89,-67.27l129.81,0l0,83.87z"/>
       <path d="m256,112.8c10.58,0 19.15,-8.58 19.15,-19.16l0,-54.19c0,-10.58 -8.57,-19.15 -19.15,-19.15c-10.58,0 -19.15,8.57 -19.15,19.15l0,54.19c0,10.58 8.57,19.16 19.15,19.16z"/>
      </g>
     </g>
    </g>
   </g>
  </symbol>
  <symbol height="800px" id="svg_14" version="1.1" viewBox="-6 -6 72.01 72.01" width="800px" xml:space="preserve" xmlns="http://www.w3.org/2000/svg" xmlns:xlink="http://www.w3.org/1999/xlink">
   <g id="svg_13" stroke-width="0"/>
   <g id="svg_12" stroke="#000000" stroke-linecap="round" stroke-linejoin="round" stroke-width="1.8">
    <g>
     <path d="m30,5c-13.78,0 -25,11.22 -25,25s11.22,25 25,25s25,-11.21 25,-25s-11.21,-25 -25,-25zm0,48c-12.68,0 -23,-10.31 -23,-23s10.32,-23 23,-23s23,10.32 23,23s-10.31,23 -23,23z"/>
     <path d="m22,22c3.31,0 6,-2.69 6,-6s-2.69,-6 -6,-6s-6,2.7 -6,6s2.7,6 6,6zm0,-10c2.21,0 4,1.8 4,4s-1.79,4 -4,4s-4,-1.79 -4,-4s1.8,-4 4,-4z"/>
     <circle cx="21" cy="14" r="1"/>
     <circle cx="21" cy="18" r="1"/>
     <circle cx="24" cy="16" r="1"/>
     <path d="m21,33c0,-3.31 -2.69,-6 -6,-6s-6,2.69 -6,6s2.7,6 6,6s6,-2.69 6,-6zm-5.99,4c-2.21,0 -4,-1.79 -4,-4s1.79,-4 4,-4s4,1.8 4,4s-1.8,4 -4,4z"/>
     <circle cx="14.01" cy="31" r="1"/>
     <circle cx="14.01" cy="35" r="1"/>
     <circle cx="17" cy="33" r="1"/>
     <path d="m40.01,27c3.3,0 6,-2.69 6,-6s-2.7,-6 -6,-6s-6,2.7 -6,6s2.69,6 6,6zm0,-10c2.2,0 4,1.8 4,4s-1.8,4 -4,4s-4,-1.79 -4,-4s1.79,-4 4,-4z"/>
     <circle cx="39.01" cy="19" r="1"/>
     <circle cx="39.01" cy="23" r="1"/>
     <circle cx="42.01" cy="21" r="1"/>
     <path d="m24.59,39.51c-3.03,1.33 -4.41,4.88 -3.08,7.91c0.99,2.24 3.19,3.58 5.5,3.58c0.81,0 1.63,-0.16 2.41,-0.5c3.03,-1.34 4.41,-4.88 3.08,-7.91c-1.33,-3.03 -4.88,-4.41 -7.91,-3.08zm4.02,9.16c-2.02,0.88 -4.38,-0.04 -5.27,-2.06c-0.89,-2.02 0.04,-4.38 2.05,-5.27c0.53,-0.23 1.07,-0.34 1.61,-0.34c1.54,0 3.01,0.9 3.67,2.39c0.88,2.02 -0.04,4.39 -2.06,5.28z"/>
     <circle cx="25.28" cy="43.58" r="1"/>
     <circle cx="26.89" cy="47.24" r="1"/>
     <circle cx="28.84" cy="44.2" r="1"/>
     <path d="m43.12,32.11c-1.57,-0.3 -3.17,0.03 -4.49,0.94c-1.33,0.9 -2.22,2.26 -2.52,3.84c-0.3,1.57 0.03,3.17 0.94,4.49c0.9,1.33 2.26,2.22 3.84,2.52c0.37,0.07 0.75,0.11 1.13,0.11c1.19,0 2.35,-0.36 3.36,-1.05c1.33,-0.9 2.22,-2.26 2.52,-3.84c0.3,-1.57 -0.03,-3.17 -0.94,-4.49c-0.9,-1.33 -2.26,-2.22 -3.84,-2.52zm2.81,6.64c-0.2,1.05 -0.79,1.96 -1.67,2.56l0,0c-0.89,0.6 -1.95,0.82 -3,0.62c-1.05,-0.2 -1.96,-0.79 -2.56,-1.68c-0.6,-0.88 -0.82,-1.94 -0.63,-2.99s0.8,-1.96 1.68,-2.56c0.67,-0.46 1.45,-0.7 2.25,-0.7c0.25,0 0.5,0.03 0.75,0.07c1.05,0.2 1.96,0.8 2.56,1.68c0.6,0.89 0.82,1.95 0.62,3z"/>
     <circle cx="43.09" cy="36.05" r="1"/>
     <circle cx="39.79" cy="38.3" r="1"/>
     <circle cx="43.13" cy="39.66" r="1"/>
     <path d="m30.5,34.46c1.46,-0.67 2.57,-1.86 3.13,-3.36c0.56,-1.5 0.5,-3.13 -0.17,-4.59c-0.66,-1.46 -1.86,-2.57 -3.36,-3.13c-1.5,-0.56 -3.13,-0.5 -4.59,0.16c-1.46,0.67 -2.57,1.86 -3.13,3.37s-0.5,3.13 0.17,4.58c0.66,1.46 1.86,2.57 3.36,3.13c0.68,0.26 1.39,0.39 2.1,0.39c0.85,0 1.69,-0.19 2.49,-0.55zm-6.13,-3.8c-0.45,-0.97 -0.49,-2.05 -0.11,-3.05c0.37,-1.01 1.11,-1.8 2.08,-2.25c0.53,-0.24 1.1,-0.36 1.66,-0.36c0.48,0 0.95,0.09 1.4,0.25c1,0.38 1.8,1.12 2.24,2.09c0.45,0.97 0.49,2.06 0.11,3.06c-0.37,1 -1.11,1.8 -2.08,2.24c-0.97,0.45 -2.06,0.48 -3.06,0.11c-1,-0.37 -1.8,-1.11 -2.24,-2.09z"/>
     <circle cx="27.77" cy="26.78" r="1"/>
     <circle cx="26.37" cy="30.53" r="1"/>
     <circle cx="29.88" cy="29.7" r="1"/>
     <path d="m30,18c2.76,0 5,-2.24 5,-5c0,-0.55 -0.44,-1 -1,-1s-1,0.45 -1,1c0,1.66 -1.34,3 -3,3c-0.55,0 -1,0.45 -1,1s0.45,1 1,1z"/>
     <path d="m17.75,25.74c0.52,0 1.05,-0.08 1.57,-0.26c0.53,-0.17 0.81,-0.74 0.63,-1.26c-0.17,-0.53 -0.74,-0.81 -1.26,-0.64c-1.57,0.53 -3.27,-0.32 -3.8,-1.89c-0.17,-0.53 -0.74,-0.81 -1.26,-0.63c-0.52,0.17 -0.81,0.74 -0.63,1.26c0.69,2.09 2.65,3.42 4.75,3.42z"/>
     <path d="m39.69,44.85c-0.76,0.25 -1.58,0.19 -2.29,-0.16c-0.72,-0.36 -1.25,-0.98 -1.51,-1.74c-0.17,-0.52 -0.74,-0.81 -1.26,-0.63c-0.53,0.17 -0.81,0.74 -0.63,1.27c0.69,2.09 2.65,3.41 4.74,3.41c0.53,0 1.06,-0.08 1.58,-0.25c0.53,-0.18 0.81,-0.74 0.63,-1.27c-0.17,-0.52 -0.74,-0.81 -1.26,-0.63z"/>
     <path d="m43.69,29.01c-0.27,0.48 -0.1,1.09 0.38,1.36c0.76,0.42 1.59,0.64 2.44,0.64c0.45,0 0.91,-0.07 1.37,-0.19c1.28,-0.37 2.35,-1.21 3,-2.38c0.27,-0.48 0.1,-1.09 -0.39,-1.36c-0.48,-0.27 -1.09,-0.1 -1.36,0.39c-0.39,0.7 -1.03,1.2 -1.8,1.42c-0.77,0.22 -1.58,0.13 -2.28,-0.27c-0.48,-0.27 -1.09,-0.1 -1.36,0.39z"/>
     <path d="m28.07,38.37c0.76,0.42 1.59,0.64 2.44,0.64c0.45,0 0.91,-0.07 1.37,-0.2c1.28,-0.36 2.35,-1.2 3,-2.37c0.27,-0.48 0.1,-1.09 -0.39,-1.36c-0.48,-0.27 -1.09,-0.1 -1.36,0.39c-0.39,0.7 -1.03,1.2 -1.8,1.42c-0.77,0.22 -1.58,0.12 -2.28,-0.27c-0.48,-0.27 -1.09,-0.1 -1.36,0.39c-0.27,0.48 -0.1,1.09 0.38,1.36z"/>
     <path d="m22.76,34.8c-0.21,-0.52 -0.79,-0.76 -1.31,-0.56c-0.51,0.21 -0.75,0.79 -0.55,1.31c0.62,1.53 -0.12,3.28 -1.65,3.9c-0.51,0.21 -0.76,0.79 -0.55,1.3c0.15,0.39 0.53,0.63 0.92,0.63c0.13,0 0.26,-0.02 0.38,-0.07c2.55,-1.04 3.79,-3.96 2.76,-6.51z"/>
     <path d="m40.19,29.33c0.54,-0.1 0.9,-0.62 0.8,-1.16c-0.1,-0.55 -0.62,-0.91 -1.17,-0.81c-1.31,0.24 -2.45,0.98 -3.21,2.08c-0.76,1.1 -1.04,2.43 -0.8,3.74c0.09,0.49 0.51,0.82 0.98,0.82c0.06,0 0.12,0 0.19,-0.01c0.54,-0.1 0.9,-0.63 0.8,-1.17c-0.15,-0.79 0.02,-1.59 0.48,-2.24c0.45,-0.66 1.14,-1.1 1.93,-1.25z"/>
     <path d="m59.54,28.34c0.92,-2.31 0.46,-4.9 -1.2,-6.76c-0.78,-0.86 -1.18,-1.97 -1.16,-3.13c0.07,-2.48 -1.26,-4.75 -3.46,-5.93c-1.03,-0.56 -1.8,-1.47 -2.18,-2.56c-0.79,-2.35 -2.83,-4.03 -5.3,-4.4c-1.16,-0.18 -2.21,-0.77 -2.94,-1.68c-1.56,-1.93 -4.05,-2.83 -6.5,-2.33c-1.15,0.23 -2.34,0.02 -3.34,-0.59l0,0c-2.13,-1.28 -4.78,-1.28 -6.91,0c-1.01,0.61 -2.19,0.82 -3.35,0.59c-2.45,-0.5 -4.94,0.4 -6.5,2.33c-0.73,0.91 -1.77,1.5 -2.93,1.68c-2.48,0.37 -4.51,2.05 -5.31,4.4c-0.37,1.09 -1.14,2 -2.17,2.56c-2.2,1.18 -3.53,3.45 -3.47,5.93c0.03,1.15 -0.38,2.27 -1.15,3.13c-1.66,1.86 -2.12,4.45 -1.21,6.76c0.43,1.07 0.43,2.25 0,3.33c-0.91,2.31 -0.45,4.9 1.21,6.75c0.77,0.87 1.18,1.98 1.15,3.14c-0.06,2.47 1.27,4.75 3.47,5.93c1.03,0.56 1.8,1.46 2.17,2.56c0.8,2.35 2.83,4.03 5.31,4.4c1.16,0.17 2.2,0.77 2.93,1.67c1.56,1.93 4.05,2.83 6.5,2.34c1.16,-0.23 2.34,-0.02 3.35,0.58c1.06,0.65 2.26,0.97 3.45,0.97s2.39,-0.32 3.46,-0.97c1,-0.6 2.19,-0.81 3.34,-0.58c2.45,0.5 4.94,-0.41 6.5,-2.34c0.73,-0.9 1.78,-1.5 2.94,-1.67c2.47,-0.37 4.51,-2.06 5.3,-4.4c0.38,-1.1 1.15,-2 2.18,-2.56c2.2,-1.18 3.53,-3.46 3.46,-5.93c-0.03,-1.16 0.38,-2.27 1.16,-3.14c1.66,-1.85 2.12,-4.44 1.2,-6.75c-0.42,-1.08 -0.42,-2.26 0,-3.33zm-1.85,4.07c0.63,1.6 0.31,3.39 -0.84,4.68c-1.12,1.25 -1.71,2.85 -1.66,4.52c0.04,1.72 -0.89,3.3 -2.42,4.12c-1.47,0.79 -2.58,2.1 -3.12,3.67c-0.56,1.64 -1.97,2.81 -3.7,3.07c-1.66,0.25 -3.15,1.1 -4.2,2.4c-1.09,1.35 -2.84,1.97 -4.55,1.63c-1.65,-0.33 -3.34,-0.03 -4.77,0.83c-1.5,0.9 -3.35,0.9 -4.85,0c-1.05,-0.63 -2.24,-0.96 -3.45,-0.96c-0.44,0 -0.88,0.04 -1.32,0.13c-1.72,0.34 -3.46,-0.28 -4.55,-1.63c-1.05,-1.3 -2.54,-2.15 -4.2,-2.4c-1.73,-0.26 -3.15,-1.43 -3.7,-3.07c-0.54,-1.57 -1.65,-2.88 -3.12,-3.67c-1.53,-0.82 -2.46,-2.4 -2.42,-4.12c0.05,-1.67 -0.55,-3.27 -1.66,-4.52c-1.15,-1.29 -1.47,-3.08 -0.84,-4.68c0.62,-1.55 0.62,-3.26 0,-4.81c-0.63,-1.6 -0.31,-3.4 0.84,-4.69c1.11,-1.24 1.71,-2.85 1.66,-4.51c-0.04,-1.72 0.88,-3.3 2.42,-4.12c1.47,-0.8 2.58,-2.1 3.12,-3.68c0.55,-1.63 1.97,-2.81 3.7,-3.06c1.66,-0.25 3.15,-1.1 4.2,-2.4c1.09,-1.35 2.83,-1.98 4.55,-1.63c1.65,0.32 3.34,0.03 4.77,-0.84c1.5,-0.9 3.35,-0.9 4.85,0c1.43,0.87 3.12,1.17 4.77,0.84c1.72,-0.35 3.46,0.28 4.55,1.63c1.05,1.3 2.54,2.15 4.2,2.4c1.72,0.25 3.14,1.43 3.7,3.06c0.54,1.58 1.65,2.88 3.12,3.68c1.53,0.82 2.46,2.4 2.42,4.12c-0.05,1.66 0.54,3.27 1.66,4.51c1.15,1.29 1.47,3.09 0.84,4.69c-0.62,1.55 -0.62,3.26 0,4.81z"/>
    </g>
   </g>
   <g id="svg_11">
    <g>
     <path d="m30,5c-13.78,0 -25,11.22 -25,25s11.22,25 25,25s25,-11.21 25,-25s-11.21,-25 -25,-25zm0,48c-12.68,0 -23,-10.31 -23,-23s10.32,-23 23,-23s23,10.32 23,23s-10.31,23 -23,23z"/>
     <path d="m22,22c3.31,0 6,-2.69 6,-6s-2.69,-6 -6,-6s-6,2.7 -6,6s2.7,6 6,6zm0,-10c2.21,0 4,1.8 4,4s-1.79,4 -4,4s-4,-1.79 -4,-4s1.8,-4 4,-4z"/>
     <circle cx="21" cy="14" r="1"/>
     <circle cx="21" cy="18" r="1"/>
     <circle cx="24" cy="16" r="1"/>
     <path d="m21,33c0,-3.31 -2.69,-6 -6,-6s-6,2.69 -6,6s2.7,6 6,6s6,-2.69 6,-6zm-5.99,4c-2.21,0 -4,-1.79 -4,-4s1.79,-4 4,-4s4,1.8 4,4s-1.8,4 -4,4z"/>
     <circle cx="14.01" cy="31" r="1"/>
     <circle cx="14.01" cy="35" r="1"/>
     <circle cx="17" cy="33" r="1"/>
     <path d="m40.01,27c3.3,0 6,-2.69 6,-6s-2.7,-6 -6,-6s-6,2.7 -6,6s2.69,6 6,6zm0,-10c2.2,0 4,1.8 4,4s-1.8,4 -4,4s-4,-1.79 -4,-4s1.79,-4 4,-4z"/>
     <circle cx="39.01" cy="19" r="1"/>
     <circle cx="39.01" cy="23" r="1"/>
     <circle cx="42.01" cy="21" r="1"/>
     <path d="m24.59,39.51c-3.03,1.33 -4.41,4.88 -3.08,7.91c0.99,2.24 3.19,3.58 5.5,3.58c0.81,0 1.63,-0.16 2.41,-0.5c3.03,-1.34 4.41,-4.88 3.08,-7.91c-1.33,-3.03 -4.88,-4.41 -7.91,-3.08zm4.02,9.16c-2.02,0.88 -4.38,-0.04 -5.27,-2.06c-0.89,-2.02 0.04,-4.38 2.05,-5.27c0.53,-0.23 1.07,-0.34 1.61,-0.34c1.54,0 3.01,0.9 3.67,2.39c0.88,2.02 -0.04,4.39 -2.06,5.28z"/>
     <circle cx="25.28" cy="43.58" r="1"/>
     <circle cx="26.89" cy="47.24" r="1"/>
     <circle cx="28.84" cy="44.2" r="1"/>
     <path d="m43.12,32.11c-1.57,-0.3 -3.17,0.03 -4.49,0.94c-1.33,0.9 -2.22,2.26 -2.52,3.84c-0.3,1.57 0.03,3.17 0.94,4.49c0.9,1.33 2.26,2.22 3.84,2.52c0.37,0.07 0.75,0.11 1.13,0.11c1.19,0 2.35,-0.36 3.36,-1.05c1.33,-0.9 2.22,-2.26 2.52,-3.84c0.3,-1.57 -0.03,-3.17 -0.94,-4.49c-0.9,-1.33 -2.26,-2.22 -3.84,-2.52zm2.81,6.64c-0.2,1.05 -0.79,1.96 -1.67,2.56l0,0c-0.89,0.6 -1.95,0.82 -3,0.62c-1.05,-0.2 -1.96,-0.79 -2.56,-1.68c-0.6,-0.88 -0.82,-1.94 -0.63,-2.99s0.8,-1.96 1.68,-2.56c0.67,-0.46 1.45,-0.7 2.25,-0.7c0.25,0 0.5,0.03 0.75,0.07c1.05,0.2 1.96,0.8 2.56,1.68c0.6,0.89 0.82,1.95 0.62,3z"/>
     <circle cx="43.09" cy="36.05" r="1"/>
     <circle cx="39.79" cy="38.3" r="1"/>
     <circle cx="43.13" cy="39.66" r="1"/>
     <path d="m30.5,34.46c1.46,-0.67 2.57,-1.86 3.13,-3.36c0.56,-1.5 0.5,-3.13 -0.17,-4.59c-0.66,-1.46 -1.86,-2.57 -3.36,-3.13c-1.5,-0.56 -3.13,-0.5 -4.59,0.16c-1.46,0.67 -2.57,1.86 -3.13,3.37s-0.5,3.13 0.17,4.58c0.66,1.46 1.86,2.57 3.36,3.13c0.68,0.26 1.39,0.39 2.1,0.39c0.85,0 1.69,-0.19 2.49,-0.55zm-6.13,-3.8c-0.45,-0.97 -0.49,-2.05 -0.11,-3.05c0.37,-1.01 1.11,-1.8 2.08,-2.25c0.53,-0.24 1.1,-0.36 1.66,-0.36c0.48,0 0.95,0.09 1.4,0.25c1,0.38 1.8,1.12 2.24,2.09c0.45,0.97 0.49,2.06 0.11,3.06c-0.37,1 -1.11,1.8 -2.08,2.24c-0.97,0.45 -2.06,0.48 -3.06,0.11c-1,-0.37 -1.8,-1.11 -2.24,-2.09z"/>
     <circle cx="27.77" cy="26.78" r="1"/>
     <circle cx="26.37" cy="30.53" r="1"/>
     <circle cx="29.88" cy="29.7" r="1"/>
     <path d="m30,18c2.76,0 5,-2.24 5,-5c0,-0.55 -0.44,-1 -1,-1s-1,0.45 -1,1c0,1.66 -1.34,3 -3,3c-0.55,0 -1,0.45 -1,1s0.45,1 1,1z"/>
     <path d="m17.75,25.74c0.52,0 1.05,-0.08 1.57,-0.26c0.53,-0.17 0.81,-0.74 0.63,-1.26c-0.17,-0.53 -0.74,-0.81 -1.26,-0.64c-1.57,0.53 -3.27,-0.32 -3.8,-1.89c-0.17,-0.53 -0.74,-0.81 -1.26,-0.63c-0.52,0.17 -0.81,0.74 -0.63,1.26c0.69,2.09 2.65,3.42 4.75,3.42z"/>
     <path d="m39.69,44.85c-0.76,0.25 -1.58,0.19 -2.29,-0.16c-0.72,-0.36 -1.25,-0.98 -1.51,-1.74c-0.17,-0.52 -0.74,-0.81 -1.26,-0.63c-0.53,0.17 -0.81,0.74 -0.63,1.27c0.69,2.09 2.65,3.41 4.74,3.41c0.53,0 1.06,-0.08 1.58,-0.25c0.53,-0.18 0.81,-0.74 0.63,-1.27c-0.17,-0.52 -0.74,-0.81 -1.26,-0.63z"/>
     <path d="m43.69,29.01c-0.27,0.48 -0.1,1.09 0.38,1.36c0.76,0.42 1.59,0.64 2.44,0.64c0.45,0 0.91,-0.07 1.37,-0.19c1.28,-0.37 2.35,-1.21 3,-2.38c0.27,-0.48 0.1,-1.09 -0.39,-1.36c-0.48,-0.27 -1.09,-0.1 -1.36,0.39c-0.39,0.7 -1.03,1.2 -1.8,1.42c-0.77,0.22 -1.58,0.13 -2.28,-0.27c-0.48,-0.27 -1.09,-0.1 -1.36,0.39z"/>
     <path d="m28.07,38.37c0.76,0.42 1.59,0.64 2.44,0.64c0.45,0 0.91,-0.07 1.37,-0.2c1.28,-0.36 2.35,-1.2 3,-2.37c0.27,-0.48 0.1,-1.09 -0.39,-1.36c-0.48,-0.27 -1.09,-0.1 -1.36,0.39c-0.39,0.7 -1.03,1.2 -1.8,1.42c-0.77,0.22 -1.58,0.12 -2.28,-0.27c-0.48,-0.27 -1.09,-0.1 -1.36,0.39c-0.27,0.48 -0.1,1.09 0.38,1.36z"/>
     <path d="m22.76,34.8c-0.21,-0.52 -0.79,-0.76 -1.31,-0.56c-0.51,0.21 -0.75,0.79 -0.55,1.31c0.62,1.53 -0.12,3.28 -1.65,3.9c-0.51,0.21 -0.76,0.79 -0.55,1.3c0.15,0.39 0.53,0.63 0.92,0.63c0.13,0 0.26,-0.02 0.38,-0.07c2.55,-1.04 3.79,-3.96 2.76,-6.51z"/>
     <path d="m40.19,29.33c0.54,-0.1 0.9,-0.62 0.8,-1.16c-0.1,-0.55 -0.62,-0.91 -1.17,-0.81c-1.31,0.24 -2.45,0.98 -3.21,2.08c-0.76,1.1 -1.04,2.43 -0.8,3.74c0.09,0.49 0.51,0.82 0.98,0.82c0.06,0 0.12,0 0.19,-0.01c0.54,-0.1 0.9,-0.63 0.8,-1.17c-0.15,-0.79 0.02,-1.59 0.48,-2.24c0.45,-0.66 1.14,-1.1 1.93,-1.25z"/>
     <path d="m59.54,28.34c0.92,-2.31 0.46,-4.9 -1.2,-6.76c-0.78,-0.86 -1.18,-1.97 -1.16,-3.13c0.07,-2.48 -1.26,-4.75 -3.46,-5.93c-1.03,-0.56 -1.8,-1.47 -2.18,-2.56c-0.79,-2.35 -2.83,-4.03 -5.3,-4.4c-1.16,-0.18 -2.21,-0.77 -2.94,-1.68c-1.56,-1.93 -4.05,-2.83 -6.5,-2.33c-1.15,0.23 -2.34,0.02 -3.34,-0.59l0,0c-2.13,-1.28 -4.78,-1.28 -6.91,0c-1.01,0.61 -2.19,0.82 -3.35,0.59c-2.45,-0.5 -4.94,0.4 -6.5,2.33c-0.73,0.91 -1.77,1.5 -2.93,1.68c-2.48,0.37 -4.51,2.05 -5.31,4.4c-0.37,1.09 -1.14,2 -2.17,2.56c-2.2,1.18 -3.53,3.45 -3.47,5.93c0.03,1.15 -0.38,2.27 -1.15,3.13c-1.66,1.86 -2.12,4.45 -1.21,6.76c0.43,1.07 0.43,2.25 0,3.33c-0.91,2.31 -0.45,4.9 1.21,6.75c0.77,0.87 1.18,1.98 1.15,3.14c-0.06,2.47 1.27,4.75 3.47,5.93c1.03,0.56 1.8,1.46 2.17,2.56c0.8,2.35 2.83,4.03 5.31,4.4c1.16,0.17 2.2,0.77 2.93,1.67c1.56,1.93 4.05,2.83 6.5,2.34c1.16,-0.23 2.34,-0.02 3.35,0.58c1.06,0.65 2.26,0.97 3.45,0.97s2.39,-0.32 3.46,-0.97c1,-0.6 2.19,-0.81 3.34,-0.58c2.45,0.5 4.94,-0.41 6.5,-2.34c0.73,-0.9 1.78,-1.5 2.94,-1.67c2.47,-0.37 4.51,-2.06 5.3,-4.4c0.38,-1.1 1.15,-2 2.18,-2.56c2.2,-1.18 3.53,-3.46 3.46,-5.93c-0.03,-1.16 0.38,-2.27 1.16,-3.14c1.66,-1.85 2.12,-4.44 1.2,-6.75c-0.42,-1.08 -0.42,-2.26 0,-3.33zm-1.85,4.07c0.63,1.6 0.31,3.39 -0.84,4.68c-1.12,1.25 -1.71,2.85 -1.66,4.52c0.04,1.72 -0.89,3.3 -2.42,4.12c-1.47,0.79 -2.58,2.1 -3.12,3.67c-0.56,1.64 -1.97,2.81 -3.7,3.07c-1.66,0.25 -3.15,1.1 -4.2,2.4c-1.09,1.35 -2.84,1.97 -4.55,1.63c-1.65,-0.33 -3.34,-0.03 -4.77,0.83c-1.5,0.9 -3.35,0.9 -4.85,0c-1.05,-0.63 -2.24,-0.96 -3.45,-0.96c-0.44,0 -0.88,0.04 -1.32,0.13c-1.72,0.34 -3.46,-0.28 -4.55,-1.63c-1.05,-1.3 -2.54,-2.15 -4.2,-2.4c-1.73,-0.26 -3.15,-1.43 -3.7,-3.07c-0.54,-1.57 -1.65,-2.88 -3.12,-3.67c-1.53,-0.82 -2.46,-2.4 -2.42,-4.12c0.05,-1.67 -0.55,-3.27 -1.66,-4.52c-1.15,-1.29 -1.47,-3.08 -0.84,-4.68c0.62,-1.55 0.62,-3.26 0,-4.81c-0.63,-1.6 -0.31,-3.4 0.84,-4.69c1.11,-1.24 1.71,-2.85 1.66,-4.51c-0.04,-1.72 0.88,-3.3 2.42,-4.12c1.47,-0.8 2.58,-2.1 3.12,-3.68c0.55,-1.63 1.97,-2.81 3.7,-3.06c1.66,-0.25 3.15,-1.1 4.2,-2.4c1.09,-1.35 2.83,-1.98 4.55,-1.63c1.65,0.32 3.34,0.03 4.77,-0.84c1.5,-0.9 3.35,-0.9 4.85,0c1.43,0.87 3.12,1.17 4.77,0.84c1.72,-0.35 3.46,0.28 4.55,1.63c1.05,1.3 2.54,2.15 4.2,2.4c1.72,0.25 3.14,1.43 3.7,3.06c0.54,1.58 1.65,2.88 3.12,3.68c1.53,0.82 2.46,2.4 2.42,4.12c-0.05,1.66 0.54,3.27 1.66,4.51c1.15,1.29 1.47,3.09 0.84,4.69c-0.62,1.55 -0.62,3.26 0,4.81z"/>
    </g>
   </g>
  </symbol>
  <symbol height="800px" id="svg_20" version="1.1" viewBox="0 0 58 58" width="800px" xml:space="preserve" xmlns="http://www.w3.org/2000/svg" xmlns:xlink="http://www.w3.org/1999/xlink">
   <g id="svg_19" stroke-width="0"/>
   <g id="svg_18" stroke="#000000" stroke-linecap="round" stroke-linejoin="round" stroke-width="1.16">
    <g>
     <path d="m40.68,22.3c-0.48,0.27 -0.64,0.88 -0.37,1.36c0.28,0.48 0.89,0.65 1.36,0.37c0.12,-0.07 0.28,-0.02 0.35,0.1c0.29,0.52 0.78,0.89 1.36,1.05c0.58,0.16 1.18,0.08 1.7,-0.22c0.12,-0.06 0.28,-0.02 0.34,0.1c0.42,0.72 1.18,1.13 1.96,1.13c0.38,0 0.76,-0.09 1.11,-0.3c0.48,-0.27 0.65,-0.88 0.38,-1.36c-0.28,-0.48 -0.89,-0.65 -1.37,-0.37c-0.12,0.07 -0.27,0.02 -0.34,-0.09c-0.61,-1.08 -1.99,-1.46 -3.07,-0.84c-0.07,0.04 -0.14,0.03 -0.19,0.02c-0.04,-0.01 -0.1,-0.04 -0.15,-0.12c-0.3,-0.52 -0.78,-0.89 -1.36,-1.05c-0.58,-0.16 -1.19,-0.08 -1.71,0.22z"/>
     <path d="m23.72,15.96c0.09,0.03 0.19,0.04 0.28,0.04c0.43,0 0.83,-0.28 0.96,-0.72c0.04,-0.13 0.17,-0.21 0.31,-0.17c1.19,0.35 2.44,-0.34 2.79,-1.53c0.04,-0.13 0.17,-0.21 0.31,-0.17c0.58,0.17 1.18,0.1 1.71,-0.19c0.53,-0.29 0.91,-0.76 1.08,-1.34c0.15,-0.53 -0.15,-1.09 -0.68,-1.24c-0.53,-0.16 -1.09,0.15 -1.24,0.68c-0.04,0.13 -0.18,0.21 -0.31,0.17c-1.19,-0.35 -2.44,0.34 -2.79,1.53c-0.04,0.13 -0.18,0.21 -0.31,0.17c-1.19,-0.35 -2.44,0.34 -2.79,1.53c-0.15,0.53 0.15,1.09 0.68,1.24z"/>
     <path d="m11.6,32.66c0.49,0.35 1.08,0.47 1.68,0.37c0.13,-0.03 0.26,0.07 0.29,0.21c0.19,1.09 1.14,1.86 2.21,1.86c0.13,0 0.26,-0.01 0.39,-0.04c0.55,-0.09 0.91,-0.61 0.81,-1.15c-0.09,-0.55 -0.61,-0.9 -1.15,-0.82c-0.14,0.03 -0.27,-0.06 -0.29,-0.2c-0.22,-1.22 -1.38,-2.05 -2.61,-1.83c-0.08,0.01 -0.15,-0.01 -0.18,-0.04c-0.04,-0.02 -0.09,-0.07 -0.11,-0.16c-0.1,-0.59 -0.43,-1.11 -0.92,-1.45c-0.49,-0.35 -1.09,-0.48 -1.68,-0.37c-0.55,0.09 -0.91,0.61 -0.81,1.15c0.09,0.55 0.61,0.91 1.15,0.81c0.09,-0.01 0.15,0.02 0.19,0.05c0.04,0.02 0.09,0.07 0.1,0.16c0.11,0.59 0.44,1.1 0.93,1.45z"/>
     <path d="m18.52,29.96c0.09,0.03 0.19,0.04 0.28,0.04c0.43,0 0.83,-0.28 0.96,-0.72c0.04,-0.13 0.18,-0.21 0.31,-0.17c1.19,0.35 2.44,-0.34 2.79,-1.53c0.04,-0.13 0.18,-0.21 0.31,-0.17c1.19,0.35 2.44,-0.34 2.79,-1.53c0.15,-0.53 -0.15,-1.09 -0.68,-1.24c-0.53,-0.15 -1.09,0.15 -1.24,0.68c-0.02,0.08 -0.08,0.13 -0.12,0.15c-0.04,0.02 -0.11,0.04 -0.19,0.02c-1.19,-0.35 -2.44,0.34 -2.79,1.53c-0.04,0.13 -0.18,0.21 -0.31,0.17c-1.19,-0.35 -2.44,0.34 -2.79,1.53c-0.15,0.53 0.15,1.09 0.68,1.24z"/>
     <path d="m45.09,31.02c-1.86,-0.16 -3.47,0.55 -4.11,1.8c-0.41,0.81 -0.31,1.72 0.27,2.38c0.24,0.28 0.79,0.98 0.57,1.42c-0.2,0.41 -1.06,0.75 -1.75,0.71c-0.66,-0.05 -1.14,-0.2 -1.31,-0.43c-0.15,-0.18 -0.16,-0.54 -0.06,-1.1c0.03,-0.12 0.14,-0.43 0.24,-0.7c0.4,-1.12 0.86,-2.39 0.34,-3.31c-0.23,-0.4 -0.62,-0.67 -1.11,-0.76l-0.15,-0.02c-0.55,-0.08 -1.01,0.31 -1.09,0.86c-0.06,0.44 0.2,0.85 0.58,1.04c-0.05,0.41 -0.32,1.16 -0.45,1.51c-0.14,0.39 -0.27,0.73 -0.32,1c-0.14,0.73 -0.25,1.81 0.43,2.7c0.55,0.71 1.48,1.12 2.76,1.2c0.09,0.01 0.18,0.01 0.27,0.01c1.29,0 2.81,-0.6 3.41,-1.82c0.31,-0.63 0.62,-1.93 -0.85,-3.62c-0.03,-0.03 -0.05,-0.05 0,-0.16c0.18,-0.35 0.9,-0.82 2.15,-0.71c0.56,0.05 1.04,-0.36 1.09,-0.91c0.04,-0.55 -0.36,-1.04 -0.91,-1.09z"/>
     <path d="m23.09,35.01c-1.93,-0.17 -2.95,0.5 -3.46,1.08c-0.61,0.7 -0.83,1.67 -0.61,2.67c0.39,1.69 0.29,2.93 -0.28,3.59c-0.56,0.66 -1.55,0.67 -1.95,0.64c-0.42,-0.03 -0.72,-0.18 -0.94,-0.47c-0.53,-0.68 -0.56,-2 -0.42,-2.72c0.1,-0.55 -0.25,-1.07 -0.79,-1.18c-0.55,-0.11 -1.07,0.25 -1.17,0.79c-0.19,0.98 -0.24,2.99 0.79,4.33c0.58,0.75 1.41,1.18 2.4,1.25c0.13,0 0.25,0.01 0.38,0.01c1.32,0 2.48,-0.48 3.22,-1.35c1.01,-1.18 1.25,-2.97 0.72,-5.33c-0.05,-0.22 -0.1,-0.62 0.16,-0.91c0.29,-0.34 0.92,-0.48 1.77,-0.4c0.55,0.05 1.04,-0.36 1.09,-0.91c0.04,-0.55 -0.36,-1.04 -0.91,-1.09z"/>
     <path d="m29,0c-15.99,0 -29,13.01 -29,29c0,7.49 2.84,14.57 8,19.99l0,3.01c0,1.65 1.35,3 3,3c0.25,0 0.48,-0.04 0.71,-0.09c0.07,-0.02 0.13,-0.04 0.2,-0.07c0.16,-0.05 0.32,-0.11 0.47,-0.19c0.06,-0.03 0.12,-0.06 0.18,-0.1c0.19,-0.11 0.36,-0.24 0.52,-0.39c0.01,-0.01 0.01,-0.01 0.02,-0.02c0.17,-0.17 0.31,-0.36 0.44,-0.56c0.01,-0.01 0.02,-0.02 0.03,-0.03c4.62,2.92 9.93,4.45 15.43,4.45c15.99,0 29,-13.01 29,-29s-13.01,-29 -29,-29zm-19,52l0,-3.82l0,-6.22l-0.17,-0.25c-2.5,-3.77 -3.83,-8.17 -3.83,-12.71c0,-6.61 2.77,-12.77 7.66,-17.13c0.43,1.64 1.37,3.02 3,3.13c1.17,0.08 2.45,-0.5 3.32,-1.51c0.85,-0.99 1.72,-2.85 1.02,-6.06c2.56,-0.95 5.25,-1.43 8,-1.43c12.68,0 23,10.32 23,23c0,10.05 -6.42,18.85 -15.99,21.91l-0.99,0.32l0.36,0.98c0.06,0.16 0.17,0.41 0.38,0.66c0.25,0.28 0.79,0.98 0.58,1.41c-0.21,0.42 -1.06,0.76 -1.75,0.71c-0.66,-0.04 -1.14,-0.2 -1.32,-0.42c-0.14,-0.19 -0.16,-0.55 -0.05,-1.1c0.04,-0.22 0.07,-0.45 0.08,-0.67l0.04,-1.18l-1.18,0.16c-1.07,0.15 -2.14,0.22 -3.16,0.22c-5.67,0 -11.11,-2.08 -15.33,-5.86l-1.67,-1.49l0,5.43l0,1.92c0,0.55 -0.45,1 -1,1s-1,-0.45 -1,-1zm4,-0.57l0,-2.43c4.31,3.24 9.56,5 15,5c0.7,0 1.42,-0.03 2.15,-0.1c-0.02,0.61 0.08,1.29 0.54,1.89c0.02,0.03 0.05,0.04 0.07,0.07c-0.91,0.09 -1.83,0.14 -2.76,0.14c-5.38,0 -10.55,-1.59 -15,-4.57zm24.37,2.89c0.05,-0.52 -0.04,-1.17 -0.49,-1.94c9.69,-3.68 16.12,-12.91 16.12,-23.38c0,-13.79 -11.22,-25 -25,-25c-3.25,0 -6.41,0.62 -9.41,1.84l-0.55,0.22l-0.07,0.6c-0.04,0.38 -0.02,0.75 0.05,1.1c0.56,2.47 0,3.77 -0.56,4.44c-0.55,0.64 -1.24,0.84 -1.67,0.8c-0.91,-0.06 -1.35,-1.92 -1.42,-3.08l-0.11,-1.89l-1.5,1.16c-6.2,4.77 -9.76,12 -9.76,19.81c0,4.84 1.38,9.52 4,13.56l0,3.4c-3.88,-4.79 -6,-10.72 -6,-16.96c0,-14.89 12.11,-27 27,-27s27,12.11 27,27c0,11.6 -7.35,21.51 -17.63,25.32z"/>
     <path d="m32.73,40.82c-1.02,-0.86 -2.56,-0.73 -3.43,0.29l-0.73,0.86c-0.42,0.5 -0.62,1.13 -0.56,1.78c0.05,0.65 0.36,1.24 0.86,1.66l2.38,2.02c0.45,0.37 1,0.57 1.57,0.57c0.07,0 0.14,0 0.21,-0.01c0.65,-0.05 1.24,-0.36 1.66,-0.86l0.72,-0.86c0.87,-1.02 0.74,-2.56 -0.29,-3.43l-2.39,-2.02zm1.16,4.16l-0.73,0.86c-0.1,0.12 -0.23,0.15 -0.3,0.16c-0.07,0.01 -0.2,0 -0.32,-0.1l-2.39,-2.02c-0.12,-0.1 -0.14,-0.23 -0.15,-0.3c0,-0.07 0,-0.2 0.1,-0.32l0.73,-0.86c0.16,-0.18 0.43,-0.2 0.62,-0.05l2.39,2.02c0.18,0.15 0.2,0.43 0.05,0.61z"/>
     <path d="m35.15,17.11c0.11,0.64 0.46,1.2 0.99,1.57c0.42,0.3 0.91,0.45 1.4,0.45c0.14,0 0.28,-0.01 0.42,-0.04l3.08,-0.52c0.64,-0.11 1.2,-0.46 1.58,-1s0.52,-1.17 0.41,-1.81l-0.19,-1.11c-0.11,-0.65 -0.46,-1.21 -0.99,-1.58c-0.53,-0.38 -1.18,-0.52 -1.82,-0.41l-3.08,0.52c-0.64,0.11 -1.2,0.47 -1.58,1s-0.52,1.18 -0.41,1.81l0.19,1.12zm1.85,-1.78c0.04,-0.05 0.13,-0.15 0.28,-0.18l3.09,-0.52c0.02,-0.01 0.05,-0.01 0.07,-0.01c0.12,0 0.21,0.05 0.25,0.08c0.06,0.04 0.15,0.13 0.18,0.28l0.19,1.11c0.03,0.16 -0.03,0.27 -0.07,0.33c-0.04,0.05 -0.13,0.15 -0.29,0.18l-3.08,0.52c-0.16,0.03 -0.27,-0.03 -0.32,-0.07c-0.06,-0.04 -0.16,-0.13 -0.18,-0.28l-0.19,-1.11c-0.03,-0.16 0.03,-0.27 0.07,-0.33z"/>
     <path d="m28.83,24.61c-0.49,0.43 -0.78,1.02 -0.82,1.67l-0.07,1.13c-0.08,1.34 0.94,2.5 2.28,2.58l3.12,0.2c0.05,0 0.1,0 0.16,0c0.59,0 1.16,-0.21 1.6,-0.6c0.49,-0.43 0.78,-1.03 0.82,-1.68l0.08,-1.12c0.08,-1.34 -0.94,-2.5 -2.28,-2.59l-3.12,-0.2c-0.65,-0.02 -1.28,0.18 -1.77,0.61zm5.17,2.05l-0.07,1.13c-0.01,0.15 -0.1,0.25 -0.15,0.3c-0.05,0.04 -0.16,0.11 -0.31,0.1l-3.12,-0.19c-0.25,-0.02 -0.43,-0.23 -0.41,-0.47l0.07,-1.12c0.01,-0.16 0.09,-0.26 0.14,-0.3c0.05,-0.05 0.16,-0.13 0.32,-0.11l3.12,0.2c0.24,0.01 0.42,0.22 0.41,0.46z"/>
     <path d="m11.9,26.15l3.05,0.69l0,0c0.18,0.04 0.36,0.06 0.53,0.06c1.12,0 2.13,-0.77 2.38,-1.89l0.53,-2.34c0.15,-0.64 0.04,-1.29 -0.31,-1.84c-0.35,-0.55 -0.89,-0.93 -1.52,-1.08l-3.05,-0.69c-0.64,-0.14 -1.29,-0.03 -1.84,0.32c-0.55,0.34 -0.93,0.88 -1.08,1.52l-0.53,2.34c-0.14,0.63 -0.03,1.28 0.32,1.84c0.34,0.55 0.88,0.93 1.52,1.07zm0.64,-4.81c0.04,-0.15 0.14,-0.24 0.19,-0.27c0.06,-0.04 0.18,-0.09 0.33,-0.06l3.05,0.69c0.16,0.04 0.24,0.14 0.28,0.19c0.03,0.06 0.09,0.18 0.05,0.33l-0.53,2.34c-0.05,0.24 -0.28,0.39 -0.52,0.33l-3.05,-0.69c-0.15,-0.03 -0.24,-0.14 -0.27,-0.19c-0.04,-0.06 -0.09,-0.18 -0.06,-0.33l0.53,-2.34z"/>
    </g>
   </g>
   <g id="svg_17">
    <g>
     <path d="m40.68,22.3c-0.48,0.27 -0.64,0.88 -0.37,1.36c0.28,0.48 0.89,0.65 1.36,0.37c0.12,-0.07 0.28,-0.02 0.35,0.1c0.29,0.52 0.78,0.89 1.36,1.05c0.58,0.16 1.18,0.08 1.7,-0.22c0.12,-0.06 0.28,-0.02 0.34,0.1c0.42,0.72 1.18,1.13 1.96,1.13c0.38,0 0.76,-0.09 1.11,-0.3c0.48,-0.27 0.65,-0.88 0.38,-1.36c-0.28,-0.48 -0.89,-0.65 -1.37,-0.37c-0.12,0.07 -0.27,0.02 -0.34,-0.09c-0.61,-1.08 -1.99,-1.46 -3.07,-0.84c-0.07,0.04 -0.14,0.03 -0.19,0.02c-0.04,-0.01 -0.1,-0.04 -0.15,-0.12c-0.3,-0.52 -0.78,-0.89 -1.36,-1.05c-0.58,-0.16 -1.19,-0.08 -1.71,0.22z"/>
     <path d="m23.72,15.96c0.09,0.03 0.19,0.04 0.28,0.04c0.43,0 0.83,-0.28 0.96,-0.72c0.04,-0.13 0.17,-0.21 0.31,-0.17c1.19,0.35 2.44,-0.34 2.79,-1.53c0.04,-0.13 0.17,-0.21 0.31,-0.17c0.58,0.17 1.18,0.1 1.71,-0.19c0.53,-0.29 0.91,-0.76 1.08,-1.34c0.15,-0.53 -0.15,-1.09 -0.68,-1.24c-0.53,-0.16 -1.09,0.15 -1.24,0.68c-0.04,0.13 -0.18,0.21 -0.31,0.17c-1.19,-0.35 -2.44,0.34 -2.79,1.53c-0.04,0.13 -0.18,0.21 -0.31,0.17c-1.19,-0.35 -2.44,0.34 -2.79,1.53c-0.15,0.53 0.15,1.09 0.68,1.24z"/>
     <path d="m11.6,32.66c0.49,0.35 1.08,0.47 1.68,0.37c0.13,-0.03 0.26,0.07 0.29,0.21c0.19,1.09 1.14,1.86 2.21,1.86c0.13,0 0.26,-0.01 0.39,-0.04c0.55,-0.09 0.91,-0.61 0.81,-1.15c-0.09,-0.55 -0.61,-0.9 -1.15,-0.82c-0.14,0.03 -0.27,-0.06 -0.29,-0.2c-0.22,-1.22 -1.38,-2.05 -2.61,-1.83c-0.08,0.01 -0.15,-0.01 -0.18,-0.04c-0.04,-0.02 -0.09,-0.07 -0.11,-0.16c-0.1,-0.59 -0.43,-1.11 -0.92,-1.45c-0.49,-0.35 -1.09,-0.48 -1.68,-0.37c-0.55,0.09 -0.91,0.61 -0.81,1.15c0.09,0.55 0.61,0.91 1.15,0.81c0.09,-0.01 0.15,0.02 0.19,0.05c0.04,0.02 0.09,0.07 0.1,0.16c0.11,0.59 0.44,1.1 0.93,1.45z"/>
     <path d="m18.52,29.96c0.09,0.03 0.19,0.04 0.28,0.04c0.43,0 0.83,-0.28 0.96,-0.72c0.04,-0.13 0.18,-0.21 0.31,-0.17c1.19,0.35 2.44,-0.34 2.79,-1.53c0.04,-0.13 0.18,-0.21 0.31,-0.17c1.19,0.35 2.44,-0.34 2.79,-1.53c0.15,-0.53 -0.15,-1.09 -0.68,-1.24c-0.53,-0.15 -1.09,0.15 -1.24,0.68c-0.02,0.08 -0.08,0.13 -0.12,0.15c-0.04,0.02 -0.11,0.04 -0.19,0.02c-1.19,-0.35 -2.44,0.34 -2.79,1.53c-0.04,0.13 -0.18,0.21 -0.31,0.17c-1.19,-0.35 -2.44,0.34 -2.79,1.53c-0.15,0.53 0.15,1.09 0.68,1.24z"/>
     <path d="m45.09,31.02c-1.86,-0.16 -3.47,0.55 -4.11,1.8c-0.41,0.81 -0.31,1.72 0.27,2.38c0.24,0.28 0.79,0.98 0.57,1.42c-0.2,0.41 -1.06,0.75 -1.75,0.71c-0.66,-0.05 -1.14,-0.2 -1.31,-0.43c-0.15,-0.18 -0.16,-0.54 -0.06,-1.1c0.03,-0.12 0.14,-0.43 0.24,-0.7c0.4,-1.12 0.86,-2.39 0.34,-3.31c-0.23,-0.4 -0.62,-0.67 -1.11,-0.76l-0.15,-0.02c-0.55,-0.08 -1.01,0.31 -1.09,0.86c-0.06,0.44 0.2,0.85 0.58,1.04c-0.05,0.41 -0.32,1.16 -0.45,1.51c-0.14,0.39 -0.27,0.73 -0.32,1c-0.14,0.73 -0.25,1.81 0.43,2.7c0.55,0.71 1.48,1.12 2.76,1.2c0.09,0.01 0.18,0.01 0.27,0.01c1.29,0 2.81,-0.6 3.41,-1.82c0.31,-0.63 0.62,-1.93 -0.85,-3.62c-0.03,-0.03 -0.05,-0.05 0,-0.16c0.18,-0.35 0.9,-0.82 2.15,-0.71c0.56,0.05 1.04,-0.36 1.09,-0.91c0.04,-0.55 -0.36,-1.04 -0.91,-1.09z"/>
     <path d="m23.09,35.01c-1.93,-0.17 -2.95,0.5 -3.46,1.08c-0.61,0.7 -0.83,1.67 -0.61,2.67c0.39,1.69 0.29,2.93 -0.28,3.59c-0.56,0.66 -1.55,0.67 -1.95,0.64c-0.42,-0.03 -0.72,-0.18 -0.94,-0.47c-0.53,-0.68 -0.56,-2 -0.42,-2.72c0.1,-0.55 -0.25,-1.07 -0.79,-1.18c-0.55,-0.11 -1.07,0.25 -1.17,0.79c-0.19,0.98 -0.24,2.99 0.79,4.33c0.58,0.75 1.41,1.18 2.4,1.25c0.13,0 0.25,0.01 0.38,0.01c1.32,0 2.48,-0.48 3.22,-1.35c1.01,-1.18 1.25,-2.97 0.72,-5.33c-0.05,-0.22 -0.1,-0.62 0.16,-0.91c0.29,-0.34 0.92,-0.48 1.77,-0.4c0.55,0.05 1.04,-0.36 1.09,-0.91c0.04,-0.55 -0.36,-1.04 -0.91,-1.09z"/>
     <path d="m29,0c-15.99,0 -29,13.01 -29,29c0,7.49 2.84,14.57 8,19.99l0,3.01c0,1.65 1.35,3 3,3c0.25,0 0.48,-0.04 0.71,-0.09c0.07,-0.02 0.13,-0.04 0.2,-0.07c0.16,-0.05 0.32,-0.11 0.47,-0.19c0.06,-0.03 0.12,-0.06 0.18,-0.1c0.19,-0.11 0.36,-0.24 0.52,-0.39c0.01,-0.01 0.01,-0.01 0.02,-0.02c0.17,-0.17 0.31,-0.36 0.44,-0.56c0.01,-0.01 0.02,-0.02 0.03,-0.03c4.62,2.92 9.93,4.45 15.43,4.45c15.99,0 29,-13.01 29,-29s-13.01,-29 -29,-29zm-19,52l0,-3.82l0,-6.22l-0.17,-0.25c-2.5,-3.77 -3.83,-8.17 -3.83,-12.71c0,-6.61 2.77,-12.77 7.66,-17.13c0.43,1.64 1.37,3.02 3,3.13c1.17,0.08 2.45,-0.5 3.32,-1.51c0.85,-0.99 1.72,-2.85 1.02,-6.06c2.56,-0.95 5.25,-1.43 8,-1.43c12.68,0 23,10.32 23,23c0,10.05 -6.42,18.85 -15.99,21.91l-0.99,0.32l0.36,0.98c0.06,0.16 0.17,0.41 0.38,0.66c0.25,0.28 0.79,0.98 0.58,1.41c-0.21,0.42 -1.06,0.76 -1.75,0.71c-0.66,-0.04 -1.14,-0.2 -1.32,-0.42c-0.14,-0.19 -0.16,-0.55 -0.05,-1.1c0.04,-0.22 0.07,-0.45 0.08,-0.67l0.04,-1.18l-1.18,0.16c-1.07,0.15 -2.14,0.22 -3.16,0.22c-5.67,0 -11.11,-2.08 -15.33,-5.86l-1.67,-1.49l0,5.43l0,1.92c0,0.55 -0.45,1 -1,1s-1,-0.45 -1,-1zm4,-0.57l0,-2.43c4.31,3.24 9.56,5 15,5c0.7,0 1.42,-0.03 2.15,-0.1c-0.02,0.61 0.08,1.29 0.54,1.89c0.02,0.03 0.05,0.04 0.07,0.07c-0.91,0.09 -1.83,0.14 -2.76,0.14c-5.38,0 -10.55,-1.59 -15,-4.57zm24.37,2.89c0.05,-0.52 -0.04,-1.17 -0.49,-1.94c9.69,-3.68 16.12,-12.91 16.12,-23.38c0,-13.79 -11.22,-25 -25,-25c-3.25,0 -6.41,0.62 -9.41,1.84l-0.55,0.22l-0.07,0.6c-0.04,0.38 -0.02,0.75 0.05,1.1c0.56,2.47 0,3.77 -0.56,4.44c-0.55,0.64 -1.24,0.84 -1.67,0.8c-0.91,-0.06 -1.35,-1.92 -1.42,-3.08l-0.11,-1.89l-1.5,1.16c-6.2,4.77 -9.76,12 -9.76,19.81c0,4.84 1.38,9.52 4,13.56l0,3.4c-3.88,-4.79 -6,-10.72 -6,-16.96c0,-14.89 12.11,-27 27,-27s27,12.11 27,27c0,11.6 -7.35,21.51 -17.63,25.32z"/>
     <path d="m32.73,40.82c-1.02,-0.86 -2.56,-0.73 -3.43,0.29l-0.73,0.86c-0.42,0.5 -0.62,1.13 -0.56,1.78c0.05,0.65 0.36,1.24 0.86,1.66l2.38,2.02c0.45,0.37 1,0.57 1.57,0.57c0.07,0 0.14,0 0.21,-0.01c0.65,-0.05 1.24,-0.36 1.66,-0.86l0.72,-0.86c0.87,-1.02 0.74,-2.56 -0.29,-3.43l-2.39,-2.02zm1.16,4.16l-0.73,0.86c-0.1,0.12 -0.23,0.15 -0.3,0.16c-0.07,0.01 -0.2,0 -0.32,-0.1l-2.39,-2.02c-0.12,-0.1 -0.14,-0.23 -0.15,-0.3c0,-0.07 0,-0.2 0.1,-0.32l0.73,-0.86c0.16,-0.18 0.43,-0.2 0.62,-0.05l2.39,2.02c0.18,0.15 0.2,0.43 0.05,0.61z"/>
     <path d="m35.15,17.11c0.11,0.64 0.46,1.2 0.99,1.57c0.42,0.3 0.91,0.45 1.4,0.45c0.14,0 0.28,-0.01 0.42,-0.04l3.08,-0.52c0.64,-0.11 1.2,-0.46 1.58,-1s0.52,-1.17 0.41,-1.81l-0.19,-1.11c-0.11,-0.65 -0.46,-1.21 -0.99,-1.58c-0.53,-0.38 -1.18,-0.52 -1.82,-0.41l-3.08,0.52c-0.64,0.11 -1.2,0.47 -1.58,1s-0.52,1.18 -0.41,1.81l0.19,1.12zm1.85,-1.78c0.04,-0.05 0.13,-0.15 0.28,-0.18l3.09,-0.52c0.02,-0.01 0.05,-0.01 0.07,-0.01c0.12,0 0.21,0.05 0.25,0.08c0.06,0.04 0.15,0.13 0.18,0.28l0.19,1.11c0.03,0.16 -0.03,0.27 -0.07,0.33c-0.04,0.05 -0.13,0.15 -0.29,0.18l-3.08,0.52c-0.16,0.03 -0.27,-0.03 -0.32,-0.07c-0.06,-0.04 -0.16,-0.13 -0.18,-0.28l-0.19,-1.11c-0.03,-0.16 0.03,-0.27 0.07,-0.33z"/>
     <path d="m28.83,24.61c-0.49,0.43 -0.78,1.02 -0.82,1.67l-0.07,1.13c-0.08,1.34 0.94,2.5 2.28,2.58l3.12,0.2c0.05,0 0.1,0 0.16,0c0.59,0 1.16,-0.21 1.6,-0.6c0.49,-0.43 0.78,-1.03 0.82,-1.68l0.08,-1.12c0.08,-1.34 -0.94,-2.5 -2.28,-2.59l-3.12,-0.2c-0.65,-0.02 -1.28,0.18 -1.77,0.61zm5.17,2.05l-0.07,1.13c-0.01,0.15 -0.1,0.25 -0.15,0.3c-0.05,0.04 -0.16,0.11 -0.31,0.1l-3.12,-0.19c-0.25,-0.02 -0.43,-0.23 -0.41,-0.47l0.07,-1.12c0.01,-0.16 0.09,-0.26 0.14,-0.3c0.05,-0.05 0.16,-0.13 0.32,-0.11l3.12,0.2c0.24,0.01 0.42,0.22 0.41,0.46z"/>
     <path d="m11.9,26.15l3.05,0.69l0,0c0.18,0.04 0.36,0.06 0.53,0.06c1.12,0 2.13,-0.77 2.38,-1.89l0.53,-2.34c0.15,-0.64 0.04,-1.29 -0.31,-1.84c-0.35,-0.55 -0.89,-0.93 -1.52,-1.08l-3.05,-0.69c-0.64,-0.14 -1.29,-0.03 -1.84,0.32c-0.55,0.34 -0.93,0.88 -1.08,1.52l-0.53,2.34c-0.14,0.63 -0.03,1.28 0.32,1.84c0.34,0.55 0.88,0.93 1.52,1.07zm0.64,-4.81c0.04,-0.15 0.14,-0.24 0.19,-0.27c0.06,-0.04 0.18,-0.09 0.33,-0.06l3.05,0.69c0.16,0.04 0.24,0.14 0.28,0.19c0.03,0.06 0.09,0.18 0.05,0.33l-0.53,2.34c-0.05,0.24 -0.28,0.39 -0.52,0.33l-3.05,-0.69c-0.15,-0.03 -0.24,-0.14 -0.27,-0.19c-0.04,-0.06 -0.09,-0.18 -0.06,-0.33l0.53,-2.34z"/>
    </g>
   </g>
  </symbol>
  <linearGradient fx="1" fy="0" id="svg_24" x1="0.86" x2="0.86" y1="1" y2="0.56">
   <stop id="jq_stop_6520" offset="0" stop-color="#ffff19"/>
   <stop id="jq_stop_847" offset="1" stop-color="#0000e6"/>
  </linearGradient>
 </defs>
 <g class="layer">
  <title>Layer 1</title>
  <ellipse cx="320.5" cy="204" fill="url(#svg_24)" id="svg_3" rx="317.5" ry="143" stroke="#000000" stroke-width="0" transform="matrix(1 0 0 1 0 0)"/>
  <text fill="#c800ff" font-family="Serif" font-size="80" font-style="italic" font-weight="bold" id="svg_1" stroke="#ffff00" stroke-linejoin="round" text-anchor="middle" x="317.1" xml:space="preserve" y="230.29">Esfihas Patrick</text>
  <use fill="#ff0000" id="svg_9" transform="matrix(0.106578 0.0373759 -0.035072 0.100008 239.837 55.5121)" xlink:href="#svg_8"/>
  <use fill="#000000" id="svg_15" stroke="#ffff00" transform="matrix(0.0894825 0 0 0.0812521 282.832 115.24)" xlink:href="#svg_14"/>
  <use fill="#ffff00" id="svg_21" transform="matrix(1 0 0 1 0 0) matrix(0.0739796 0 0 0.067941 304.857 82.772)" xlink:href="#svg_20"/>
 </g>
</svg>